<svg width="23" height="23" viewBox="0 0 23 23" fill="none" xmlns="http://www.w3.org/2000/svg">
<path d="M10.654 11.5L6 6.84605L6.84597 6L11.5 10.654L16.154 6L17 6.84605L12.346 11.5L17 16.1539L16.154 17L11.5 12.346L6.84596 17L6 16.1539L10.654 11.5Z" fill="#BF0000"/>
<path fill-rule="evenodd" clip-rule="evenodd" d="M0 11.5C0 5.14871 5.14872 0 11.5 0C17.8513 0 23 5.14871 23 11.5C23 17.8513 17.8513 23 11.5 23C5.14872 23 0 17.8513 0 11.5ZM11.5 1.09524C5.75328 1.09524 1.09524 5.75328 1.09524 11.5C1.09524 17.2467 5.75328 21.9048 11.5 21.9048C17.2467 21.9048 21.9048 17.2467 21.9048 11.5C21.9048 5.75328 17.2467 1.09524 11.5 1.09524Z" fill="#BF0000"/>
</svg>
