<svg width="71" height="72" viewBox="0 0 71 72" fill="none" xmlns="http://www.w3.org/2000/svg">
<path d="M1.75 2.25L69.25 69.75M33.8125 19.125H49M49 36H47.3125M22 36H35.5M22 52.875H35.5M7.78112 9C5.125 12.9825 5.125 19.125 5.125 29.8845V43.1753C5.125 55.7033 5.125 61.9673 9.31 65.8553C13.4984 69.75 20.2383 69.75 33.7113 69.75H37.2887C50.7651 69.75 57.5016 69.75 61.69 65.8586C61.978 65.5886 62.248 65.3074 62.5 65.0149M65.8075 51.1875C65.875 48.7339 65.875 45.9427 65.875 42.75V29.25C65.875 16.5229 65.875 10.1576 61.69 6.2055C57.5016 2.25 50.7617 2.25 37.2887 2.25H33.7113C26.3268 2.25 20.9639 2.25 16.9375 2.90138" stroke="#818181" stroke-width="3" stroke-linecap="round" stroke-linejoin="round"/>
</svg>
