<svg width="21" height="18" viewBox="0 0 21 18" fill="none" xmlns="http://www.w3.org/2000/svg">
<path fill-rule="evenodd" clip-rule="evenodd" d="M1.32372 11.5C1.47205 11.6452 1.66172 11.8282 1.88687 12.0384C2.47643 12.5887 3.30518 13.3211 4.26325 14.0512C5.22298 14.7836 6.30175 15.5062 7.39135 16.0435C8.48748 16.5841 9.55397 16.9167 10.5001 16.9167C11.4461 16.9167 12.5126 16.5841 13.6088 16.0435C14.6985 15.5062 15.7771 14.7836 16.7369 14.0512C17.6949 13.3211 18.5237 12.5887 19.1132 12.0384C19.3384 11.8282 19.5281 11.6452 19.6764 11.5C19.5281 11.3548 19.3384 11.1718 19.1132 10.9616C18.5237 10.4113 17.6949 9.67892 16.7369 8.94875C15.7771 8.21642 14.6985 7.49383 13.6088 6.9565C12.5126 6.41592 11.4461 6.08333 10.5001 6.08333C9.55397 6.08333 8.48748 6.41592 7.39135 6.9565C6.30175 7.49383 5.22298 8.21642 4.26325 8.94875C3.30518 9.67892 2.47643 10.4113 1.88687 10.9616C1.66172 11.1718 1.47205 11.3548 1.32372 11.5ZM20.4478 11.5C20.8518 11.1306 20.8516 11.1306 20.8515 11.1306L20.8501 11.1284L20.8464 11.1252L20.8331 11.1111L20.7822 11.0591C20.738 11.0136 20.6731 10.9475 20.5896 10.8641C20.4223 10.6972 20.1796 10.46 19.8753 10.1762C19.2674 9.60958 18.4104 8.85233 17.4157 8.09291C16.4227 7.33566 15.2815 6.56866 14.1055 5.98908C12.9357 5.41166 11.6905 5 10.5001 5C9.30959 5 8.06437 5.41166 6.89463 5.98908C5.7186 6.56866 4.57737 7.33566 3.58438 8.09291C2.58972 8.85233 1.73268 9.60958 1.12477 10.1762C0.820478 10.46 0.577862 10.6972 0.410631 10.8641C0.32696 10.9475 0.262079 11.0136 0.217867 11.0591L0.167136 11.1111L0.153652 11.1252L0.15 11.1284L0.148896 11.1295C0.148785 11.1295 0.148459 11.1306 0.552444 11.5L0.148896 11.1295C-0.049284 11.3375 -0.049833 11.6614 0.148457 11.8694L0.552444 11.5C0.148459 11.8694 0.148347 11.8694 0.148457 11.8694L0.15 11.8716L0.153652 11.8748L0.167136 11.8889L0.217867 11.9409C0.262079 11.9864 0.32696 12.0525 0.410631 12.1359C0.577862 12.3028 0.820478 12.54 1.12477 12.8238C1.73268 13.3904 2.58972 14.1477 3.58438 14.9071C4.57737 15.6643 5.7186 16.4313 6.89463 17.0109C8.06437 17.5883 9.30959 18 10.5001 18C11.6905 18 12.9357 17.5883 14.1055 17.0109C15.2815 16.4313 16.4227 15.6643 17.4157 14.9071C18.4104 14.1477 19.2674 13.3904 19.8753 12.8238C20.1796 12.54 20.4223 12.3028 20.5896 12.1359C20.6731 12.0525 20.738 11.9864 20.7822 11.9409L20.8331 11.8889L20.8464 11.8748L20.8501 11.8716L20.8512 11.8705C20.8513 11.8705 20.8518 11.8694 20.4478 11.5ZM20.4478 11.5L20.8512 11.8705C21.0494 11.6625 21.0497 11.3386 20.8515 11.1306L20.4478 11.5Z" fill="#5F5F5F"/>
<path fill-rule="evenodd" clip-rule="evenodd" d="M10.5 9C9.1193 9 8 10.119 8 11.5C8 12.881 9.1193 14 10.5 14C11.8807 14 13 12.881 13 11.5C13 10.119 11.8807 9 10.5 9ZM7 11.5C7 9.567 8.567 8 10.5 8C12.433 8 14 9.567 14 11.5C14 13.433 12.433 15 10.5 15C8.567 15 7 13.433 7 11.5Z" fill="#5F5F5F"/>
<path fill-rule="evenodd" clip-rule="evenodd" d="M11 0V3H10V0H11Z" fill="#5F5F5F"/>
<path fill-rule="evenodd" clip-rule="evenodd" d="M1.78361 2L4 4.21565L3.21639 5L1 2.78435L1.78361 2Z" fill="#5F5F5F"/>
<path fill-rule="evenodd" clip-rule="evenodd" d="M19.2164 2L17 4.21565L17.7836 5L20 2.78435L19.2164 2Z" fill="#5F5F5F"/>
</svg>
