<svg width="23" height="13" viewBox="0 0 23 13" fill="none" xmlns="http://www.w3.org/2000/svg">
<path fill-rule="evenodd" clip-rule="evenodd" d="M0.903536 0C0.903536 0 0.90354 -3.8743e-06 0.451768 0.506553C-4.64916e-06 1.01311 0 1.01462 0 1.01462L0.00122697 1.0161L0.00490787 1.02061L0.0184139 1.03858C0.0294627 1.05207 0.0454145 1.07305 0.0662844 1.10003C0.108024 1.15248 0.168183 1.22893 0.246752 1.32485C0.402662 1.51668 0.632234 1.78943 0.924413 2.11464C1.51 2.76358 2.35338 3.62983 3.38829 4.49607C5.44704 6.21956 8.33323 8 11.5005 8C14.6666 8 17.5528 6.21956 19.6116 4.49607C20.6477 3.62983 21.4911 2.76358 22.0755 2.11464C22.3689 1.78943 22.5972 1.51668 22.7544 1.32485C22.8329 1.22893 22.8931 1.15248 22.9348 1.10003C22.9557 1.07305 22.9716 1.05207 22.9827 1.03858L22.995 1.02061L22.9986 1.0161L22.9999 1.01462C22.9999 1.01462 23.0011 1.01311 22.5493 0.506553C22.0976 -3.8743e-06 22.0976 0 22.0976 0L22.0951 0.00148643L22.0865 0.0134922L22.0472 0.0644425C22.0104 0.110902 21.9564 0.179844 21.8839 0.268267C21.7403 0.443613 21.5255 0.698374 21.2493 1.00561C20.6968 1.62157 19.8976 2.44136 18.918 3.26114C16.9452 4.9097 14.3069 6.50131 11.5005 6.50131C8.69293 6.50131 6.05473 4.9097 4.08313 3.26114C3.10348 2.44136 2.30428 1.62157 1.75061 1.00561C1.47439 0.698374 1.26078 0.443613 1.11592 0.268267C1.04472 0.179844 0.989471 0.110902 0.953869 0.0644425L0.914588 0.0134922L0.904772 0.00148643L0.903536 0Z" fill="#CACACA"/>
<path fill-rule="evenodd" clip-rule="evenodd" d="M12 13V7H11V13H12Z" fill="#CACACA"/>
<path fill-rule="evenodd" clip-rule="evenodd" d="M2.76375 10L6 5.9547L5.23625 5L2 9.0453L2.76375 10Z" fill="#CACACA"/>
<path fill-rule="evenodd" clip-rule="evenodd" d="M20.0453 10L16 5.9547L16.9547 5L21 9.0453L20.0453 10Z" fill="#CACACA"/>
</svg>
