<svg width="17" height="21" viewBox="0 0 17 21" fill="none" xmlns="http://www.w3.org/2000/svg">
<path d="M5.5 10.75H11.5C11.7833 10.75 12.021 10.654 12.213 10.462C12.405 10.27 12.5007 10.0327 12.5 9.75C12.4993 9.46733 12.4033 9.23 12.212 9.038C12.0207 8.846 11.7833 8.75 11.5 8.75H5.5C5.21667 8.75 4.97933 8.846 4.788 9.038C4.59667 9.23 4.50067 9.46733 4.5 9.75C4.49933 10.0327 4.59533 10.2703 4.788 10.463C4.98067 10.6557 5.218 10.7513 5.5 10.75ZM5.5 6.75H11.5C11.7833 6.75 12.021 6.654 12.213 6.462C12.405 6.27 12.5007 6.03267 12.5 5.75C12.4993 5.46733 12.4033 5.23 12.212 5.038C12.0207 4.846 11.7833 4.75 11.5 4.75H5.5C5.21667 4.75 4.97933 4.846 4.788 5.038C4.59667 5.23 4.50067 5.46733 4.5 5.75C4.49933 6.03267 4.59533 6.27033 4.788 6.463C4.98067 6.65567 5.218 6.75133 5.5 6.75ZM16.45 19.225L12.4 13.95C12.1167 13.5667 11.7667 13.271 11.35 13.063C10.9333 12.855 10.4833 12.7507 10 12.75H0.5V2.75C0.5 2.2 0.696 1.72933 1.088 1.338C1.48 0.946667 1.95067 0.750667 2.5 0.75H14.5C15.05 0.75 15.521 0.946 15.913 1.338C16.305 1.73 16.5007 2.20067 16.5 2.75V18.75C16.5 18.8333 16.496 18.9127 16.488 18.988C16.48 19.0633 16.4673 19.1423 16.45 19.225ZM2.5 20.75C1.95 20.75 1.47933 20.5543 1.088 20.163C0.696666 19.7717 0.500667 19.3007 0.5 18.75V14.75H10C10.1667 14.75 10.321 14.7877 10.463 14.863C10.605 14.9383 10.7257 15.0423 10.825 15.175L15.025 20.675C14.9417 20.7083 14.8543 20.7293 14.763 20.738C14.6717 20.7467 14.584 20.7507 14.5 20.75H2.5Z" fill="#AEAEAE"/>
</svg>
