<svg width="23" height="23" viewBox="0 0 23 23" fill="none" xmlns="http://www.w3.org/2000/svg">
<path fill-rule="evenodd" clip-rule="evenodd" d="M11.5 1.09524C5.75361 1.09524 1.09524 5.75329 1.09524 11.5C1.09524 17.2467 5.75361 21.9048 11.5 21.9048C17.2464 21.9048 21.9048 17.2467 21.9048 11.5C21.9048 5.75329 17.2464 1.09524 11.5 1.09524ZM0 11.5C0 5.14871 5.14871 0 11.5 0C17.8513 0 23 5.14871 23 11.5C23 17.8513 17.8513 23 11.5 23C5.14871 23 0 17.8513 0 11.5Z" fill="#00B412"/>
<path fill-rule="evenodd" clip-rule="evenodd" d="M18 6.87959L9.48037 16.8183C9.27238 17.0606 8.93522 17.0606 8.72734 16.8183L5 12.4701L5.75303 11.5905L9.1038 15.5002L17.247 6L18 6.87959Z" fill="#00B412"/>
</svg>
